<svg id="Layer_1" data-name="Layer 1" xmlns="http://www.w3.org/2000/svg" viewBox="0 0 132 101"><defs><style>.cls-1,.cls-2,.cls-3{fill:none;}.cls-1,.cls-2{stroke:#84a2a5;}.cls-1{stroke-linejoin:round;stroke-width:4.96px;}.cls-2,.cls-3{stroke-linecap:round;stroke-miterlimit:10;stroke-width:8px;}.cls-3{stroke:#a7c0c6;}</style></defs><title>forberedt</title><rect class="cls-1" x="40.48" y="13.99" width="51.5" height="75.5"/><path class="cls-2" d="M82,27.5l-21.26.06"/><path class="cls-2" d="M50.19,27.5l-.25.06"/><path class="cls-3" d="M82,43.16l-21.26.06"/><path class="cls-3" d="M50.13,43.16l-.25.06"/><path class="cls-3" d="M82,59.16l-21.26.06"/><path class="cls-3" d="M50.13,59.16l-.25.06"/><path class="cls-3" d="M82,74.16l-21.26.06"/><path class="cls-3" d="M50.13,74.16l-.25.06"/><rect class="cls-1" x="40.48" y="13.99" width="51.5" height="75.5"/><path class="cls-2" d="M82,27.5l-21.26.06"/><path class="cls-2" d="M50.19,27.5l-.25.06"/><path class="cls-3" d="M82,43.16l-21.26.06"/><path class="cls-3" d="M50.13,43.16l-.25.06"/><path class="cls-3" d="M82,59.16l-21.26.06"/><path class="cls-3" d="M50.13,59.16l-.25.06"/><path class="cls-3" d="M82,74.16l-21.26.06"/><path class="cls-3" d="M50.13,74.16l-.25.06"/></svg>
