<svg id="Layer_1" data-name="Layer 1" xmlns="http://www.w3.org/2000/svg" viewBox="0 0 132 101"><defs><style>.cls-1,.cls-2,.cls-3,.cls-4,.cls-5,.cls-6{fill:none;}.cls-1,.cls-2{stroke:#84a2a5;}.cls-1,.cls-4{stroke-linejoin:round;stroke-width:4.96px;}.cls-2,.cls-3,.cls-5,.cls-6{stroke-linecap:round;stroke-miterlimit:10;stroke-width:8px;}.cls-3{stroke:#a7c0c6;}.cls-4,.cls-5{stroke:#324274;}.cls-6{stroke:#687f9d;}</style></defs><title>forberedt</title><rect class="cls-1" x="40.48" y="13.99" width="51.5" height="75.5"/><line class="cls-2" x1="82.03" y1="27.5" x2="60.77" y2="27.56"/><line class="cls-2" x1="50.19" y1="27.5" x2="49.94" y2="27.56"/><line class="cls-3" x1="81.97" y1="43.16" x2="60.71" y2="43.22"/><line class="cls-3" x1="50.13" y1="43.16" x2="49.88" y2="43.22"/><line class="cls-3" x1="81.97" y1="59.16" x2="60.71" y2="59.22"/><line class="cls-3" x1="50.13" y1="59.16" x2="49.88" y2="59.22"/><line class="cls-3" x1="81.97" y1="74.16" x2="60.71" y2="74.22"/><line class="cls-3" x1="50.13" y1="74.16" x2="49.88" y2="74.22"/><rect class="cls-4" x="40.48" y="13.99" width="51.5" height="75.5"/><line class="cls-5" x1="82.03" y1="27.5" x2="60.77" y2="27.56"/><line class="cls-5" x1="50.19" y1="27.5" x2="49.94" y2="27.56"/><line class="cls-6" x1="81.97" y1="43.16" x2="60.71" y2="43.22"/><line class="cls-6" x1="50.13" y1="43.16" x2="49.88" y2="43.22"/><line class="cls-6" x1="81.97" y1="59.16" x2="60.71" y2="59.22"/><line class="cls-6" x1="50.13" y1="59.16" x2="49.88" y2="59.22"/><line class="cls-6" x1="81.97" y1="74.16" x2="60.71" y2="74.22"/><line class="cls-6" x1="50.13" y1="74.16" x2="49.88" y2="74.22"/></svg>
