<svg id="Layer_1" data-name="Layer 1" xmlns="http://www.w3.org/2000/svg" viewBox="0 0 132 101"><defs><style>.cls-1{fill:#a7c0c6;}.cls-2{fill:#84a2a5;}.cls-3{fill:#122948;}.cls-4,.cls-7,.cls-8{fill:none;stroke-linecap:round;stroke-miterlimit:10;stroke-width:9.61px;}.cls-4{stroke:#a7c0c6;}.cls-5{fill:#687f9d;}.cls-6{fill:#324274;}.cls-7{stroke:#324274;}.cls-8{stroke:#687f9d;}</style></defs><title>ikke_alene</title><circle class="cls-1" cx="39.52" cy="26.54" r="15"/><circle class="cls-2" cx="90.52" cy="26.54" r="15"/><rect class="cls-2" x="76.52" y="46.54" width="29" height="45.44" rx="8.24"/><path class="cls-3" d="M118.52,90.85a4.82,4.82,0,0,1-4.67-3.66c-2-8.26-6.8-27.61-15.82-31.79-1.3-.6-3-.58-5.1-.56-1,0-2.08,0-3.41-.05-1.58,0-5.29-.18-6.32.32-7.42,4.83-12.43,20.13-14.45,31.75a4.81,4.81,0,1,1-9.47-1.64C60.81,76.4,65.7,55,78,47c3.27-2.12,8-1.95,11.83-1.82,1.16,0,2.07.05,3,0,2.79,0,6-.06,9.23,1.45,11.62,5.38,17,21.55,21.13,38.21a4.81,4.81,0,0,1-3.52,5.82A5.09,5.09,0,0,1,118.52,90.85Z"/><path class="cls-4" d="M12.72,86.33C14.33,77,20.63,57,29.35,51.33c2.49-1.62,8.18-.79,11.17-.79h8"/><rect class="cls-1" x="25.52" y="47.54" width="29" height="45" rx="8.2"/><path class="cls-5" d="M73.19,45.78H40A5.26,5.26,0,0,0,40,56.3h24.4A33.12,33.12,0,0,1,73.19,45.78Z"/><circle class="cls-5" cx="39.52" cy="26.54" r="15"/><circle class="cls-6" cx="90.52" cy="26.54" r="15"/><rect class="cls-6" x="76.52" y="46.54" width="29" height="45.44" rx="8.24"/><path class="cls-7" d="M64,86c2.13-12.29,7.39-29,16.63-35,2.49-1.62,8.09-1,11.08-1s5.68-.22,8.32,1c10.6,4.91,15.47,22.82,18.47,35"/><path class="cls-8" d="M12.72,86.33C14.33,77,20.63,57,29.35,51.33c2.49-1.62,8.18-.79,11.17-.79h8"/><rect class="cls-5" x="25.52" y="47.54" width="29" height="45" rx="8.2"/></svg>
