<svg id="Layer_1" data-name="Layer 1" xmlns="http://www.w3.org/2000/svg" viewBox="0 0 132 101"><defs><style>.cls-1{fill:#a7c0c6;}.cls-2,.cls-4,.cls-5{fill:none;stroke-linecap:round;stroke-miterlimit:10;stroke-width:9.61px;}.cls-2{stroke:#fff;}.cls-3{fill:#84a2a5;}.cls-4{stroke:#84a2a5;}.cls-5{stroke:#a7c0c6;}</style></defs><title>ikke_alene</title><rect class="cls-1" x="51.38" y="29.16" width="10.52" height="43.76" rx="5.26" transform="translate(5.6 107.68) rotate(-90)"/><path class="cls-2" d="M60.28,84.05c2.13-12.29,7.39-29,16.63-35,2.49-1.62,8.09-1,11.08-1s5.68-.22,8.31,1c10.6,4.9,15.48,22.81,18.48,35"/><circle class="cls-1" cx="39.52" cy="26.54" r="15"/><circle class="cls-3" cx="90.52" cy="26.54" r="15"/><rect class="cls-3" x="76.52" y="46.54" width="29" height="45.44" rx="8.24"/><path class="cls-4" d="M64,86c2.13-12.29,7.39-29,16.63-35,2.49-1.62,8.09-1,11.08-1s5.68-.22,8.32,1c10.6,4.91,15.47,22.82,18.47,35"/><path class="cls-5" d="M12.72,86.33C14.33,77,20.63,57,29.35,51.33c2.49-1.62,8.18-.79,11.17-.79h8"/><rect class="cls-1" x="25.52" y="47.54" width="29" height="45" rx="8.2"/><rect class="cls-1" x="51.38" y="29.16" width="10.52" height="43.76" rx="5.26" transform="translate(5.6 107.68) rotate(-90)"/><path class="cls-2" d="M60.28,84.05c2.13-12.29,7.39-29,16.63-35,2.49-1.62,8.09-1,11.08-1s5.68-.22,8.31,1c10.6,4.9,15.48,22.81,18.48,35"/><circle class="cls-1" cx="39.52" cy="26.54" r="15"/><circle class="cls-3" cx="90.52" cy="26.54" r="15"/><rect class="cls-3" x="76.52" y="46.54" width="29" height="45.44" rx="8.24"/><path class="cls-4" d="M64,86c2.13-12.29,7.39-29,16.63-35,2.49-1.62,8.09-1,11.08-1s5.68-.22,8.32,1c10.6,4.91,15.47,22.82,18.47,35"/><path class="cls-5" d="M12.72,86.33C14.33,77,20.63,57,29.35,51.33c2.49-1.62,8.18-.79,11.17-.79h8"/><rect class="cls-1" x="25.52" y="47.54" width="29" height="45" rx="8.2"/></svg>
