<svg id="Layer_1" data-name="Layer 1" xmlns="http://www.w3.org/2000/svg" viewBox="0 0 132 101"><defs><style>.cls-1,.cls-2{fill:none;stroke-linecap:round;stroke-miterlimit:10;stroke-width:7.28px;}.cls-1{stroke:#324274;}.cls-2{stroke:#687f9d;}</style></defs><title>roligt_i_vandet</title><path class="cls-1" d="M57.92,67.78c-1.78,4.77-7.94,8.28-15.26,8.28s-13.48-3.52-15.27-8.29"/><path class="cls-1" d="M89.09,68c-1.87,4.68-8,8.11-15.2,8.11S60.34,72.58,58.6,67.77"/><path class="cls-1" d="M105.07,76.23c-7.41,0-13.63-3.6-15.32-8.46"/><path class="cls-1" d="M27,67.77C25.14,72.5,19,76,11.72,76"/><path class="cls-2" d="M73.33,46.09c-1.78,4.77-7.94,8.28-15.26,8.28S44.58,50.85,42.8,46.08"/><path class="cls-2" d="M104.49,46.32c-1.86,4.69-8,8.12-15.19,8.12S75.75,50.89,74,46.08"/><path class="cls-2" d="M120.48,54.54c-7.41,0-13.63-3.6-15.33-8.46"/><path class="cls-2" d="M42.37,46.08c-1.82,4.73-7.95,8.21-15.24,8.21"/><path class="cls-1" d="M57.77,24.11c-1.79,4.77-8,8.29-15.27,8.29S29,28.88,27.24,24.11"/><path class="cls-1" d="M88.93,24.35c-1.86,4.69-8,8.12-15.2,8.12s-13.54-3.56-15.29-8.36"/><path class="cls-1" d="M104.92,32.57c-7.42,0-13.64-3.61-15.33-8.46"/><path class="cls-1" d="M26.8,24.11c-1.82,4.73-7.95,8.21-15.23,8.21"/><path class="cls-1" d="M57.92,67.78c-1.78,4.77-7.94,8.28-15.26,8.28s-13.48-3.52-15.27-8.29"/><path class="cls-1" d="M89.09,68c-1.87,4.68-8,8.11-15.2,8.11S60.34,72.58,58.6,67.77"/><path class="cls-1" d="M105.07,76.23c-7.41,0-13.63-3.6-15.32-8.46"/><path class="cls-1" d="M27,67.77C25.14,72.5,19,76,11.72,76"/><path class="cls-2" d="M73.33,46.09c-1.78,4.77-7.94,8.28-15.26,8.28S44.58,50.85,42.8,46.08"/><path class="cls-2" d="M104.49,46.32c-1.86,4.69-8,8.12-15.19,8.12S75.75,50.89,74,46.08"/><path class="cls-2" d="M120.48,54.54c-7.41,0-13.63-3.6-15.33-8.46"/><path class="cls-2" d="M42.37,46.08c-1.82,4.73-7.95,8.21-15.24,8.21"/><path class="cls-1" d="M57.77,24.11c-1.79,4.77-8,8.29-15.27,8.29S29,28.88,27.24,24.11"/><path class="cls-1" d="M88.93,24.35c-1.86,4.69-8,8.12-15.2,8.12s-13.54-3.56-15.29-8.36"/><path class="cls-1" d="M104.92,32.57c-7.42,0-13.64-3.61-15.33-8.46"/><path class="cls-1" d="M26.8,24.11c-1.82,4.73-7.95,8.21-15.23,8.21"/></svg>
