<svg id="Layer_1" data-name="Layer 1" xmlns="http://www.w3.org/2000/svg" viewBox="0 0 132 101"><defs><style>.cls-1,.cls-2,.cls-4,.cls-5{fill:none;stroke-linecap:round;stroke-miterlimit:10;stroke-width:9.61px;}.cls-1{stroke:#84a2a5;}.cls-2{stroke:#a7c0c6;}.cls-3{fill:#a7c0c6;}.cls-4{stroke:#324274;}.cls-5{stroke:#687f9d;}.cls-6{fill:#687f9d;}</style></defs><title>taet_ved_stien</title><path class="cls-1" d="M60.29,27.46v-4.2a9.14,9.14,0,0,0-9-9.27h0a9.14,9.14,0,0,0-9,9.27V81.9"/><path class="cls-2" d="M101.48,31.9V27.35a9,9,0,0,0-8.77-9.28h0a9,9,0,0,0-8.77,9.28V86"/><path class="cls-3" d="M82.08,47.87l-38.43-4a2.87,2.87,0,0,1-2.55-3.15l.14-1.34a2.86,2.86,0,0,1,3.13-2.57l38.43,4A2.87,2.87,0,0,1,85.35,44l-.14,1.34A2.86,2.86,0,0,1,82.08,47.87Z"/><path class="cls-3" d="M82.24,65.93l-38.63-4a2.8,2.8,0,0,1-2.48-3.08l.11-1.14a2.79,2.79,0,0,1,3.06-2.5l38.63,4a2.79,2.79,0,0,1,2.48,3.07l-.11,1.14A2.81,2.81,0,0,1,82.24,65.93Z"/><path class="cls-3" d="M82.32,83,43.57,79a2.72,2.72,0,0,1-2.41-3l.09-.94a2.73,2.73,0,0,1,3-2.44l38.75,4a2.72,2.72,0,0,1,2.42,3l-.1,1A2.7,2.7,0,0,1,82.32,83Z"/><path class="cls-1" d="M60.29,27.46v-4.2a9.14,9.14,0,0,0-9-9.27h0a9.14,9.14,0,0,0-9,9.27V81.9"/><path class="cls-2" d="M101.48,31.9V27.35a9,9,0,0,0-8.77-9.28h0a9,9,0,0,0-8.77,9.28V86"/><path class="cls-3" d="M82.08,47.87l-38.43-4a2.87,2.87,0,0,1-2.55-3.15l.14-1.34a2.86,2.86,0,0,1,3.13-2.57l38.43,4A2.87,2.87,0,0,1,85.35,44l-.14,1.34A2.86,2.86,0,0,1,82.08,47.87Z"/><path class="cls-3" d="M82.24,65.93l-38.63-4a2.8,2.8,0,0,1-2.48-3.08l.11-1.14a2.79,2.79,0,0,1,3.06-2.5l38.63,4a2.79,2.79,0,0,1,2.48,3.07l-.11,1.14A2.81,2.81,0,0,1,82.24,65.93Z"/><path class="cls-3" d="M82.32,83,43.57,79a2.72,2.72,0,0,1-2.41-3l.09-.94a2.73,2.73,0,0,1,3-2.44l38.75,4a2.72,2.72,0,0,1,2.42,3l-.1,1A2.7,2.7,0,0,1,82.32,83Z"/><path class="cls-1" d="M60.29,27.46v-4.2a9.14,9.14,0,0,0-9-9.27h0a9.14,9.14,0,0,0-9,9.27V81.9"/><path class="cls-2" d="M101.48,31.9V27.35a9,9,0,0,0-8.77-9.28h0a9,9,0,0,0-8.77,9.28V86"/><path class="cls-3" d="M82.08,47.87l-38.43-4a2.87,2.87,0,0,1-2.55-3.15l.14-1.34a2.86,2.86,0,0,1,3.13-2.57l38.43,4A2.87,2.87,0,0,1,85.35,44l-.14,1.34A2.86,2.86,0,0,1,82.08,47.87Z"/><path class="cls-3" d="M82.24,65.93l-38.63-4a2.8,2.8,0,0,1-2.48-3.08l.11-1.14a2.79,2.79,0,0,1,3.06-2.5l38.63,4a2.79,2.79,0,0,1,2.48,3.07l-.11,1.14A2.81,2.81,0,0,1,82.24,65.93Z"/><path class="cls-3" d="M82.32,83,43.57,79a2.72,2.72,0,0,1-2.41-3l.09-.94a2.73,2.73,0,0,1,3-2.44l38.75,4a2.72,2.72,0,0,1,2.42,3l-.1,1A2.7,2.7,0,0,1,82.32,83Z"/><path class="cls-4" d="M60.29,27.46v-4.2a9.14,9.14,0,0,0-9-9.27h0a9.14,9.14,0,0,0-9,9.27V81.9"/><path class="cls-5" d="M101.48,31.9V27.35a9,9,0,0,0-8.77-9.28h0a9,9,0,0,0-8.77,9.28V86"/><path class="cls-6" d="M82.08,47.87l-38.43-4a2.87,2.87,0,0,1-2.55-3.15l.14-1.34a2.86,2.86,0,0,1,3.13-2.57l38.43,4A2.87,2.87,0,0,1,85.35,44l-.14,1.34A2.86,2.86,0,0,1,82.08,47.87Z"/><path class="cls-6" d="M82.24,65.93l-38.63-4a2.8,2.8,0,0,1-2.48-3.08l.11-1.14a2.79,2.79,0,0,1,3.06-2.5l38.63,4a2.79,2.79,0,0,1,2.48,3.07l-.11,1.14A2.81,2.81,0,0,1,82.24,65.93Z"/><path class="cls-6" d="M82.32,83,43.57,79a2.72,2.72,0,0,1-2.41-3l.09-.94a2.73,2.73,0,0,1,3-2.44l38.75,4a2.72,2.72,0,0,1,2.42,3l-.1,1A2.7,2.7,0,0,1,82.32,83Z"/></svg>
