<svg id="Layer_1" data-name="Layer 1" xmlns="http://www.w3.org/2000/svg" viewBox="0 0 132 101"><defs><style>.cls-1,.cls-2{fill:none;stroke-linecap:round;stroke-miterlimit:10;stroke-width:8px;}.cls-1{stroke:#84a2a5;}.cls-2{stroke:#a7c0c6;}</style></defs><title>vejret_roligt</title><path class="cls-1" d="M20.62,42.4l-3.26.06"/><path class="cls-1" d="M73.82,23.35c0-4.37,2.33-7.58,5-8.73,7.76-3.36,15.18-1.52,18,6.81.11.32.21.63.31.94a14.57,14.57,0,0,1,0,8.6l-.34,1.12c-2,6.55-9.18,9.82-15,9.82l-51,.41"/><path class="cls-1" d="M32.93,68.12h36.9a6.58,6.58,0,0,1,0,13.1"/><path class="cls-1" d="M109.28,36.84A5.41,5.41,0,0,1,110.91,35c2.87-2.1,6.88-.44,8.13,3.08,0,.15.1.29.14.43a6.53,6.53,0,0,1,0,3.89l-.15.51c-.91,3-4.16,4.44-6.77,4.44l-16.51.13"/><path class="cls-2" d="M38,55.69l-8-.13"/><path class="cls-2" d="M85.79,75.76a9.19,9.19,0,0,0,5,7.64c7.76,3.36,15.18,1.51,18-6.81.11-.32.21-.64.31-1a14.54,14.54,0,0,0,0-8.59l-.34-1.12c-2-6.55-9.18-9.82-15-9.82l-45.49-.37"/><path class="cls-2" d="M19.66,55.53l-6.36.06"/><path class="cls-1" d="M20.62,42.4l-3.26.06"/><path class="cls-1" d="M73.82,23.35c0-4.37,2.33-7.58,5-8.73,7.76-3.36,15.18-1.52,18,6.81.11.32.21.63.31.94a14.57,14.57,0,0,1,0,8.6l-.34,1.12c-2,6.55-9.18,9.82-15,9.82l-51,.41"/><path class="cls-1" d="M32.93,68.12h36.9a6.58,6.58,0,0,1,0,13.1"/><path class="cls-1" d="M109.28,36.84A5.41,5.41,0,0,1,110.91,35c2.87-2.1,6.88-.44,8.13,3.08,0,.15.1.29.14.43a6.53,6.53,0,0,1,0,3.89l-.15.51c-.91,3-4.16,4.44-6.77,4.44l-16.51.13"/><path class="cls-2" d="M38,55.69l-8-.13"/><path class="cls-2" d="M85.79,75.76a9.19,9.19,0,0,0,5,7.64c7.76,3.36,15.18,1.51,18-6.81.11-.32.21-.64.31-1a14.54,14.54,0,0,0,0-8.59l-.34-1.12c-2-6.55-9.18-9.82-15-9.82l-45.49-.37"/><path class="cls-2" d="M19.66,55.53l-6.36.06"/></svg>
