<svg id="Layer_1" data-name="Layer 1" xmlns="http://www.w3.org/2000/svg" viewBox="0 0 2000.11 756.04"><defs><style>.cls-1{fill:#1a171b;}</style></defs><title>magasin-logo0</title><path class="cls-1" d="M563.32,557.49c6.28,0,12.24-5.24,13.35-11.73h0c1-5.81-2.24-10.77-7.62-11.72a73.17,73.17,0,0,1-15.1-4c-23.87-10.3-30.12-32.69-25.61-59.85l54-325.19c2.4-14.48,7.45-27.27,18.73-38.51S626.29,92.89,640,90a10.91,10.91,0,0,0,8.89-9.35h0c.89-5.25-2.52-9.52-7.59-9.52L515.69,71c-6.51,0-11.37,1-14.43,3.1s-6.08,5.94-8.9,11.46L318.34,400a6.39,6.39,0,0,1-5.59,3.3h0a6.39,6.39,0,0,1-6.27-5.16L246.34,92.65c-3.14-13.79-5.1-21.43-19.62-21.43H100c-5.16,0-10.07,4.32-11,9.67h0c-.81,4.77,1.86,8.82,6.28,9.6,13.34,2.36,29.12,7.36,35.9,19.91,7.51,13.88,6.78,31.2,3.72,51.88,0,.14-49,295.11-49,295.11-4.57,25.72-25.3,78.37-77,83a10.37,10.37,0,0,0-8.83,8.48h0c-.8,4.75,2.27,8.6,6.86,8.6H158.23c5.16,0,10.07-4.32,11-9.66h0c.85-5-2.13-9.29-6.91-9.69-10.72-.89-23.34-3.83-32.64-12.08-12.49-11.08-17.55-33.73-15-54.42,1.21-9.75,2.16-20.44,4-31.54L165.4,158.61a5.09,5.09,0,0,1,5-4.25h0a5.08,5.08,0,0,1,5,4c8.59,42,81,395.68,81.92,399.88.79,3.72,3.47,5.42,7.18,5.42,4.15,0,7.52-2.2,9.64-6.09,2-3.68,197.41-367,215.55-400.76a4.74,4.74,0,0,1,4.2-2.5h0a4.78,4.78,0,0,1,4.72,5.56L447.09,470.18c-3.7,22.27-19.19,46.76-40.29,58-8.59,4.58-24.1,7.27-33.86,8.6A12.67,12.67,0,0,0,362.59,547h0c-1,5.76,2.74,10.46,8.31,10.46Z"/><path class="cls-1" d="M1728.55,169.11a35.28,35.28,0,1,1-35.28-35.52A35.41,35.41,0,0,1,1728.55,169.11Z"/><path class="cls-1" d="M859,75.29a5.31,5.31,0,0,0-5.44-4.23h-58.5a5.7,5.7,0,0,1-5.68-5.71l-.08-59.84A5.28,5.28,0,0,0,785.08.13a7.67,7.67,0,0,0-8.3,4.57L749.35,66.48a7.66,7.66,0,0,1-7,4.58H682.46a7.83,7.83,0,0,0-7.37,5.87,5.47,5.47,0,0,0,2.49,6.42l41.12,23.39a7.76,7.76,0,0,1,2.71,10.87l-35.64,56.71c-2,3.2-1.14,6.25.6,7.85,2.2,2,5.64,1.93,8.38-.19l54-42A7.63,7.63,0,0,1,759.3,141l34.78,40.69c1.75,1.91,4.35,2.57,7.37,1.15,2.62-1.23,5.07-4.28,4.37-7.9L794.6,117.19a7.75,7.75,0,0,1,4.38-8.53l55.53-25.23A7.47,7.47,0,0,0,859,75.29Z"/><path class="cls-1" d="M865.48,268.35q2.61-9.32-1-14.64c-2.42-3.57-6.36-5.32-11.84-5.32h-12c-9.61,0-14.83,8.58-21.37,15.35-10.42-8.87-19.41-14.12-37.22-14.12-34,0-89,35.12-136.92,98.61-26.2,35.43-90.51,156.84-41.91,202.56,40,37.63,103.83-24.07,119.29-44.65,8-10.6,16.82-23.44,24.76-33.56a2.51,2.51,0,0,1,4.34,2.38c-2.85,8.42-5.66,21.15-8,31.86-4.09,18.53-7.93,55.94,27,55.94,25.84,0,46.9-21.29,62.39-40.74,15.77-19.81,29.36-42.76,29.36-49.23a10.57,10.57,0,0,0-10.62-10.32,10,10,0,0,0-8.64,4.89c0,.06-6.69,10.4-14.7,22.15-5.87,8.62-16.3,22.63-22.06,22.63-3.21,0-5.26-2.18-5.89-6.68-1.22-8.56,1.83-22.15,5.81-35.94ZM778.76,373.2c-30.7,64.9-79.87,131.87-111.86,131.87-35.95,0-.31-90.8,29-141.32,26.84-46.31,65.14-89.21,96.76-89.21C823.59,274.54,808,311.34,778.76,373.2Z"/><path class="cls-1" d="M1371.92,268.35q2.61-9.32-1-14.64c-2.42-3.57-6.35-5.32-11.84-5.32h-12c-9.62,0-14.84,8.58-21.38,15.35-10.42-8.87-19.41-14.12-37.22-14.12-34,0-89,35.12-136.92,98.61-26.2,35.43-90.51,156.84-41.91,202.56,40,37.63,103.83-24.07,119.29-44.65,8-10.6,16.82-23.44,24.76-33.56a2.52,2.52,0,0,1,4.35,2.38c-2.86,8.42-5.67,21.15-8,31.86-4.09,18.53-7.93,55.94,27,55.94,25.84,0,46.9-21.29,62.39-40.74,15.77-19.81,29.36-42.76,29.36-49.23a10.56,10.56,0,0,0-10.62-10.32,10,10,0,0,0-8.64,4.89c0,.06-6.69,10.4-14.7,22.15-5.87,8.62-16.3,22.63-22.06,22.63-3.21,0-5.26-2.18-5.89-6.68-1.21-8.56,1.84-22.15,5.81-35.94ZM1285.2,373.2c-30.7,64.9-79.87,131.87-111.86,131.87-35.95,0-.31-90.8,29-141.32,26.84-46.31,65.15-89.21,96.76-89.21C1330,274.54,1314.47,311.34,1285.2,373.2Z"/><path class="cls-1" d="M1172.43,239.33c-3.31-10.8-9.75-25.79-27.23-25.79-4.61,0-6.17,2.56-6.87,6.54-3.8,21.7-12.09,30.64-34.83,32-13.35.8-33.61-1.59-46.33-2.68-36.49-3.15-66.91-1-91.41,10.58-37.17,17.61-64.6,44.11-81.48,82.53-27.71,63.05,9.65,113.73,55.79,116.07,1.9.1,1.33,2.31-.22,3.12-10.77,5.68-34.78,20.54-44.86,35.65-17.94,26.89-20.29,49.61,1.71,76.81,29.09,36,117.5,34.41,140.08,62.71,18.61,23.31-17.21,90.15-103.5,90.15-73.08,0-126.81-29.5-104.41-94.81,4.46-13,7.9-18.32,15.6-25.17,5.41-4.81,2.33-16.48-7.81-16.48v0c-40.73,0-74.33,35.65-71.5,71.3S810.66,756,930.93,756s190.93-79.76,169.57-147.61c-15.81-50.2-96.89-53.77-150-79.85-20-9.79-16.89-30.91-.69-45.59,6.86-6.23,18.29-12.19,27.7-16.14C1033.22,446.34,1072,421,1098.15,366.5c11.31-23.51,11.52-60.34-9.47-88.16-.72-.95.29-2.89,1.57-2.71,5.43.78,34.66,4.14,46.63,4.14C1163.56,279.77,1177.71,256.52,1172.43,239.33ZM1037,354.38C1017,406.83,988.32,436,963.2,436c-22.81,0-33.68-39.43-15.38-85.95,18.66-47.42,48.19-79.8,76.37-77.31C1040.89,274.22,1056.58,303.14,1037,354.38Z"/><path class="cls-1" d="M1369.61,502.41c0,21.75,22.66,60.24,77.82,60.24,59.42,0,100-43.22,92.33-94.37-7.71-51.81-52.48-106.61-72.51-140.95-7.73-13.25-18.76-49.5,12.7-55.07,15.68-2.78,24.34,4.72,38.91,34.51,11.91,24.37,41.76,16.59,41.76-12.06,0-17.15-15.18-45.79-60.66-45.79-29.19,0-72.42,12.37-84.14,56.32-8.4,31.48,1.9,59,16.66,88.2,15.44,30.61,55,81.12,57.35,103.22,2.13,20-8.35,36.86-24.92,39.76-42.15,7.37-38.44-41.73-56.8-55.41C1394.12,470.58,1369.61,477.71,1369.61,502.41Z"/><line class="cls-1" x1="1986.15" y1="462.95" x2="1986" y2="462.94"/><path class="cls-1" d="M1634.38,504c-1.34,5-.75,12.42,5.64,14.48,4.72,1.52,10.18-2.31,13.35-5.15,15.53-13.9,26.2-37.7,29.74-45.14a9.94,9.94,0,0,1,9-5.69h0a10.84,10.84,0,0,1,10.21,14.2c-8.18,25.21-42.13,86-86.34,86-18.71,0-51.77-15.2-36.36-67.25,8.32-28.07,36.17-124.63,47.06-160.79,1.91-6.34,14.13-36.94-.71-36.94-11.68,0-27.93,21.18-41.48,45.65a10.28,10.28,0,0,1-8.45,5.12c-8.53,0-13.7-8.4-10.07-15.11,10.53-19.52,24.62-39.47,37.82-52.67,15.58-15.59,34.7-33,58.72-33,37.09,0,35,46.37,27.63,71C1678.54,357.67,1634.38,504,1634.38,504Z"/><path class="cls-1" d="M1925.55,334.61c-10.89,36.16-40.35,132.72-48.66,160.79-15.42,52.05,17.64,67.25,36.35,67.25,44.21,0,78.16-60.77,86.34-86a10.84,10.84,0,0,0-10.21-14.2h0a9.94,9.94,0,0,0-9,5.69c-3.54,7.44-14.21,31.24-29.74,45.14-3.17,2.84-8.63,6.67-13.35,5.15-6.39-2.06-7-9.52-5.64-14.48,0,0,41.12-130.63,52.75-169.63,6.89-22.93,21.1-85.75-52.59-85.75-42.8,0-95.84,67.46-106.56,90.1a2.39,2.39,0,0,1-2.87,1.28h0a2.59,2.59,0,0,1-1.75-3.17c14.1-49,26.18-88-11.32-88-36.31,0-80.34,69.54-88.47,84.93a10.57,10.57,0,0,0,9.3,15.42h0a9.8,9.8,0,0,0,8.79-5.24c11-21.77,34.22-51.14,42.87-43.77,5.23,4.46,1.12,27.64-1.34,37.71-8,32.68-44.68,177.55-53.24,210.57a7.3,7.3,0,0,0,7,9.05l35.16,0a15.3,15.3,0,0,0,14.8-11.1c5.78-20,12.42-43.82,17.16-59.84,9.37-31.66,15-56.73,25.38-84.27,8.52-22.55,16-38.56,29.16-59.26,10.62-16.65,39.85-49.33,60.23-49.33C1939.53,293.67,1930,319.63,1925.55,334.61Z"/></svg>
