<?xml version="1.0" encoding="utf-8"?>
<!-- Generator: Adobe Illustrator 24.0.1, SVG Export Plug-In . SVG Version: 6.00 Build 0)  -->
<svg version="1.1" id="Layer_1" xmlns="http://www.w3.org/2000/svg" xmlns:xlink="http://www.w3.org/1999/xlink" x="0px" y="0px"
	 viewBox="0 0 3679 550.8" style="enable-background:new 0 0 3679 550.8;" xml:space="preserve">
<style type="text/css">
	.st0{fill:#1A171B;}
	.st1{fill:none;}
	.st2{fill:none;stroke:#1A171B;stroke-width:3;}
</style>
<title>Vinterliv-logo</title>
<path class="st0" d="M413.2,408.9c4.6,0,9-3.8,9.8-8.6l0,0c0.7-4.3-1.6-7.9-5.6-8.6c-3.8-0.6-7.5-1.6-11.1-2.9
	c-17.5-7.6-22.1-24-18.8-43.9l39.6-238.5c1.8-10.6,5.5-20,13.7-28.2s18.5-10,28.6-12.1c3.4-0.6,6.1-3.4,6.5-6.9l0,0
	c0.6-3.9-1.8-7-5.6-7l-92.2-0.1c-4.8,0-8.3,0.8-10.6,2.3s-4.5,4.4-6.5,8.4L233.5,293.3c-0.8,1.5-2.4,2.4-4.1,2.4l0,0
	c-2.2,0-4.2-1.6-4.6-3.8L180.7,68c-2.3-10.1-3.7-15.7-14.4-15.7H73.4c-4,0.2-7.4,3.1-8,7.1l0,0c-0.6,3.5,1.4,6.5,4.6,7
	c9.8,1.7,21.4,5.4,26.3,14.6c5.5,10.2,5,22.9,2.7,38c0,0.1-36,216.5-36,216.5c-3.4,18.9-18.6,57.5-56.5,60.9c-3.3,0.4-5.9,3-6.5,6.2
	l0,0c-0.6,3.5,1.7,6.3,5,6.3h111c4-0.2,7.3-3.1,8-7.1l0,0c0.6-3.7-1.6-6.8-5.1-7.1c-7.9-0.7-17.1-2.8-24-8.9
	c-9.2-8.1-12.9-24.7-11-39.9c0.9-7.2,1.6-15,2.9-23.1l34.4-206.5c0.3-1.8,1.9-3.1,3.7-3.1l0,0c1.8,0,3.3,1.3,3.7,3
	c6.3,30.8,59.4,290.2,60.1,293.3c0.6,2.7,2.5,4,5.3,4c3,0,5.8-1.7,7.1-4.5c1.5-2.7,144.8-269.2,158.1-294c0.6-1.1,1.8-1.8,3.1-1.8
	l0,0c1.9,0,3.5,1.6,3.5,3.5c0,0.2,0,0.4,0,0.6L328,344.8c-2.7,16.3-14.1,34.3-29.5,42.5c-6.3,3.3-17.7,5.3-24.8,6.3
	c-3.9,0.7-6.9,3.6-7.6,7.5l0,0c-0.7,4.2,2,7.7,6.1,7.7L413.2,408.9z"/>
<path class="st0" d="M1267.9,124c-0.1,14.3-11.8,25.8-26.1,25.7c-14.3-0.1-25.8-11.8-25.7-26.1c0.1-14.2,11.6-25.7,25.8-25.7
	C1256.3,98,1267.9,109.7,1267.9,124z"/>
<path class="st0" d="M630.1,55.2c-0.4-1.9-2.1-3.2-4-3.1h-42.9c-2.3,0-4.2-1.9-4.2-4.2V4c0.1-1.9-1.2-3.6-3.1-4
	c-2.6-0.4-5.1,1-6.1,3.4l-20.1,45.3c-0.9,2-2.9,3.4-5.1,3.4h-44c-2.6,0.1-4.8,1.8-5.4,4.3c-0.6,1.8,0.2,3.8,1.8,4.7l30.2,17.2
	c2.7,1.5,3.7,5,2.1,7.8c0,0.1-0.1,0.2-0.1,0.2l-26.1,41.6c-1.3,1.8-1.1,4.2,0.4,5.8c1.6,1.5,4.1,1.4,6.2-0.1l39.6-30.9
	c2.4-1.8,5.8-1.5,7.7,0.8l25.5,29.8c1.4,1.5,3.6,1.9,5.4,0.9c2.3-1,3.6-3.4,3.2-5.8l-8.2-42.4c-0.5-2.6,0.8-5.2,3.2-6.3l40.7-18.5
	C629.2,60.2,630.5,57.7,630.1,55.2z"/>
<path class="st0" d="M634.9,196.8c1.3-4.6,1-8.1-0.7-10.8s-4.7-3.9-8.7-3.9h-8.8c-7,0-10.9,6.3-15.7,11.3
	c-7.6-6.5-14.2-10.3-27.3-10.3c-25,0-65.3,25.8-100.4,72.3c-19.2,26-66.4,115-30.7,148.6c29.3,27.6,76.1-17.7,87.5-32.8
	c5.8-7.8,12.3-17.2,18.2-24.6c0.5-0.7,1.5-0.9,2.3-0.5c0.8,0.4,1.2,1.4,0.9,2.2c-2.1,6.2-4.2,15.5-5.9,23.4c-3,13.6-5.8,41,19.8,41
	c19,0,34.4-15.6,45.8-29.9c11.6-14.5,21.5-31.4,21.5-36.1c-0.1-4.2-3.6-7.6-7.8-7.6c-2.6,0-5,1.4-6.3,3.6c0,0-4.9,7.6-10.8,16.2
	c-4.3,6.3-12,16.6-16.2,16.6c-2.3,0-3.8-1.6-4.3-4.9c-0.9-6.3,1.3-16.2,4.3-26.4L634.9,196.8z M571.3,273.7
	c-22.5,47.6-58.6,96.7-82,96.7c-26.4,0-0.2-66.6,21.2-103.7c19.7-34,47.8-65.4,71-65.4C604.1,201.3,592.7,228.3,571.3,273.7z"/>
<path class="st0" d="M1006.3,196.8c1.3-4.6,1-8.1-0.7-10.8s-4.7-3.9-8.7-3.9h-8.8c-7,0-10.9,6.3-15.7,11.3
	c-7.7-6.5-14.2-10.3-27.3-10.3c-25,0-65.3,25.8-100.4,72.3c-19.2,26-66.4,115-30.7,148.6c29.3,27.6,76.2-17.7,87.5-32.8
	c5.8-7.8,12.3-17.2,18.2-24.6c0.6-0.8,1.8-0.9,2.6-0.3c0.6,0.5,0.8,1.3,0.6,2c-2.1,6.2-4.2,15.5-5.9,23.4c-3,13.6-5.8,41,19.8,41
	c19,0,34.4-15.6,45.8-29.9c11.5-14.5,21.5-31.3,21.5-36.1c-0.1-4.2-3.6-7.6-7.8-7.6c-2.6,0-5,1.4-6.3,3.6c0,0-4.9,7.6-10.8,16.2
	c-4.3,6.3-12,16.6-16.2,16.6c-2.4,0-3.9-1.6-4.3-4.9c-0.9-6.3,1.3-16.2,4.3-26.4L1006.3,196.8z M942.7,273.7
	c-22.5,47.6-58.6,96.7-82,96.7c-26.4,0-0.2-66.6,21.3-103.7c19.7-34,47.8-65.4,71-65.4C975.6,201.3,964.2,228.3,942.7,273.7z"/>
<path class="st0" d="M860,175.5c-2.4-7.9-7.2-18.9-20-18.9c-3.4,0-4.5,1.9-5,4.8c-2.8,15.9-8.9,22.5-25.6,23.5
	c-9.8,0.6-24.7-1.2-34-2c-26.8-2.3-49.1-0.8-67,7.8c-27.3,12.9-47.4,32.3-59.8,60.5c-20.3,46.2,7.1,83.4,40.9,85.1
	c1.4,0.1,1,1.7-0.2,2.3c-7.9,4.2-25.5,15.1-32.9,26.2c-13.2,19.7-14.9,36.4,1.3,56.3c21.3,26.4,86.2,25.2,102.7,46
	c13.7,17.1-12.6,66.1-75.9,66.1c-53.6,0-93-21.6-76.6-69.5c3.3-9.5,5.8-13.4,11.5-18.5c4-3.5,1.7-12.1-5.7-12.1l0,0
	c-29.9,0-54.5,26.2-52.5,52.3s33.4,69.1,121.6,69.1s140-58.5,124.4-108.3c-11.6-36.8-71.1-39.4-110-58.6
	c-14.6-7.2-12.4-22.7-0.5-33.4c5-4.6,13.4-8.9,20.3-11.8c40.9-15,69.3-33.7,88.5-73.6c8.3-17.2,8.4-44.2-7-64.7
	c-0.4-0.7-0.1-1.5,0.5-1.8c0.2-0.1,0.4-0.2,0.6-0.2c4,0.6,25.4,3,34.2,3C853.5,205.2,863.9,188.1,860,175.5z M760.7,259.9
	c-14.7,38.5-35.7,59.9-54.1,59.9c-16.7,0-24.7-28.9-11.3-63c13.7-34.8,35.3-58.5,56-56.7C763.5,201.1,775,222.3,760.7,259.9
	L760.7,259.9z"/>
<path class="st0" d="M1004.6,368.5c0,16,16.6,44.2,57.1,44.2c43.6,0,73.3-31.7,67.7-69.2c-5.7-38-38.5-78.2-53.2-103.4
	c-5.7-9.7-13.8-36.3,9.3-40.4c11.5-2,17.9,3.5,28.5,25.3c8.7,17.9,30.6,12.2,30.6-8.8c0-12.6-11.1-33.6-44.5-33.6
	c-21.4,0-53.1,9.1-61.7,41.3c-6.2,23.1,1.4,43.2,12.2,64.7c11.3,22.4,40.3,59.5,42.1,75.7c1.6,14.7-6.1,27-18.3,29.2
	c-30.9,5.4-28.2-30.6-41.7-40.7C1022.6,345.1,1004.6,350.4,1004.6,368.5z"/>
<line class="st1" x1="1456.8" y1="339.5" x2="1456.7" y2="339.5"/>
<path class="st0" d="M1198.8,369.6c-1,3.6-0.6,9.1,4.1,10.6c3.5,1.1,7.5-1.7,9.8-3.8c11.4-10.2,19.2-27.7,21.8-33.1
	c1.2-2.6,3.8-4.2,6.6-4.2l0,0c4.4,0.1,7.9,3.7,7.9,8.1c0,0.8-0.1,1.6-0.4,2.3c-6,18.5-30.9,63.1-63.3,63.1
	c-13.7,0-38-11.2-26.7-49.3c6.1-20.6,26.5-91.4,34.5-117.9c1.4-4.7,10.4-27.1-0.5-27.1c-8.6,0-20.5,15.5-30.4,33.5
	c-1.3,2.2-3.6,3.6-6.2,3.8c-6.3,0-10-6.2-7.4-11.1c7.7-14.3,18.1-29,27.8-38.6c11.4-11.4,25.4-24.2,43.1-24.2
	c27.2,0,25.7,34,20.3,52.1C1231.2,262.3,1198.8,369.6,1198.8,369.6z"/>
<path class="st0" d="M1412.4,245.4c-8,26.5-29.6,97.3-35.7,117.9c-11.3,38.2,12.9,49.3,26.7,49.3c32.4,0,57.3-44.6,63.3-63.1
	c1.3-4.2-1-8.7-5.2-10c-0.7-0.2-1.5-0.4-2.3-0.4l0,0c-2.8,0-5.4,1.6-6.6,4.2c-2.6,5.5-10.4,22.9-21.8,33.1c-2.3,2.1-6.3,4.9-9.8,3.8
	c-4.7-1.5-5.1-7-4.1-10.6c0,0,30.2-95.8,38.7-124.4c5-16.8,15.5-62.9-38.6-62.9c-31.4,0-70.3,49.5-78.2,66.1
	c-0.4,0.8-1.3,1.2-2.1,0.9l0,0c-1-0.3-1.6-1.3-1.3-2.3c10.3-36,19.2-64.6-8.3-64.6c-26.6,0-58.9,51-64.9,62.3
	c-2,3.8-0.5,8.5,3.3,10.4c1.1,0.6,2.3,0.9,3.5,0.9l0,0c2.7,0,5.2-1.4,6.4-3.8c8.1-16,25.1-37.5,31.4-32.1c3.8,3.3,0.8,20.3-1,27.7
	c-5.9,24-32.8,130.2-39,154.4c-0.7,2.9,1,5.8,3.9,6.5c0.4,0.1,0.8,0.2,1.2,0.2h25.8c5,0,9.5-3.3,10.9-8.2
	c4.2-14.7,9.1-32.1,12.6-43.9c6.9-23.2,11-41.6,18.6-61.8c6.2-16.5,11.7-28.3,21.4-43.5c7.8-12.2,29.2-36.2,44.2-36.2
	C1422.6,215.4,1415.7,234.4,1412.4,245.4z"/>
<line class="st2" x1="1836.6" y1="10.4" x2="1689.3" y2="553.3"/>
<path class="st0" d="M2342.1,127.6c-45.4,101.2-194.8,423.2-258.8,423.2c-1.9,0-3.8-0.3-5.6-0.9c-77.5-26.2,23.9-370.1,25-373.5
	l1.3-3.7c4.8-13.6,9.2-24.9,13.1-34.2c-14.5,12.8-29.9,24.2-44.9,35.2c-10.5,7.7-23,16.1-36.1,24.4c-2.4,1.6-5.7,0.8-7.2-1.6
	c-1.6-2.4-0.8-5.7,1.6-7.2c12.9-8.2,25.2-16.5,35.4-23.9c19.5-14.3,39.5-29.1,57-46.6c1.8-1.8,3.8-3.4,5.8-5
	c9.4-17.2,15.7-20.6,21-20.6s6.9,3.1,7.4,4.4c1.9,5.6-3.4,10-16.6,20.3l-3.5,2.7c-5.6,10.6-13.1,27.8-23,55.7l-1.3,3.5
	c-26.3,86-85.3,342.1-31.6,360.3c26.8,9.2,117.2-117,251.5-416.6c1.2-2.6,4.3-3.8,6.9-2.6C2342.1,121.9,2343.3,125,2342.1,127.6
	L2342.1,127.6L2342.1,127.6z"/>
<path class="st0" d="M2453.3,321.2c-20.5,19.2-69.4,45-105.7,45c-8.1,0-15.5-1.3-21.9-4.2c-10.7-4.9-23.2-16.6-22.1-44.8
	c0.2-2.9,2.6-5.1,5.4-5c2.9,0.1,5.1,2.6,5,5.5c-0.7,18.2,4.5,29.6,16,34.9c29.4,13.4,92.9-17.2,116.1-38.9c2.1-2,5.4-2,7.4,0.1
	c2,2.1,2,5.4-0.1,7.4C2453.4,321.2,2453.3,321.2,2453.3,321.2L2453.3,321.2z M2307.3,279.8c-2.3-2.2-2.6-2.5,1.6-13.6
	c0-1,0.4-2,1.1-2.8c0.4-1,0.9-2.2,1.3-3.4c0.9-2.7,3.9-4.2,6.7-3.3c2.7,0.9,4.2,3.9,3.3,6.7c0,0.1-0.1,0.3-0.2,0.4
	c-0.9,2.4-1.7,4.5-2.4,6.2c-0.9,3.7-2.9,9.8-5.8,11C2311,281.7,2308.8,281.3,2307.3,279.8L2307.3,279.8z"/>
<path class="st0" d="M2735.6,321.5c-34.5,27.3-60.7,40.3-81.5,40.3c-3,0-5.9-0.3-8.9-0.8c-20.8-4.1-31-22.3-39.9-38.4
	c-10.7-19.1-17.5-29.7-33-25.3c-11.9,3.6-25.1,15.5-39,28c-21,18.9-42.7,38.5-65.9,35c-7.8-1.1-13.2-3.9-16.7-8.6
	c-5.8-7.8-4.2-18.5-2.6-28.9c0.3-2,0.6-4.1,0.9-6.1c0.4-2.9,3-4.9,5.9-4.5c2.9,0.4,4.9,3,4.5,5.9l0,0c-0.2,2.1-0.6,4.2-0.9,6.3
	c-1.3,8.6-2.5,16.7,0.7,21c1.7,2.3,4.9,3.8,9.8,4.5c18.5,2.8,38.2-15.2,57.4-32.5c14.9-13.4,28.9-26,43.1-30.3
	c24.4-7,35.4,12.8,45.1,30.3c8.3,14.8,16.8,30,32.8,33.2c18.5,3.7,45.4-8.5,81.8-37.4c2.3-1.8,5.6-1.5,7.4,0.8s1.5,5.6-0.8,7.4
	C2735.7,321.4,2735.6,321.4,2735.6,321.5L2735.6,321.5z"/>
<path class="st0" d="M2899.4,167.6c2.8,0.5,4.7,3.3,4.2,6.1c-0.5,2.8-3.3,4.7-6.1,4.2c-0.1,0-0.3-0.1-0.4-0.1
	c-25.1-5.8-51.3-5.7-77.4-3.7c-4.2,7.9-8.6,15.8-13.4,23.5c-13.3,21-25.3,44.4-34.4,62.5c-2.2,4.5-4.6,9.2-7.1,13.9
	c-7.4,17.2-12.5,30.2-13.4,35c-7.3,35.8-5,58.4,6.5,63.8c18.6,8.7,61-23.3,89.1-58.5c1.7-2.3,5-2.9,7.3-1.2s2.9,5,1.2,7.3
	c-0.1,0.1-0.2,0.2-0.3,0.4c-26.6,33.3-64.7,63.8-90.6,63.8c-3.8,0.1-7.6-0.7-11.1-2.3c-15.5-7.2-20.2-29.3-14.1-65.8
	c-1,1.4-2,2.8-3,4.2c-1.7,2.3-5,2.8-7.3,1.1c-2.3-1.7-2.8-5-1.1-7.3l0,0c12.5-16.8,23-36,31.8-53.3c10.9-25.2,25.3-56.9,38.9-85.1
	c-4.9,0.5-9.8,1-14.7,1.5c-21.6,2.3-44,4.7-65.9,4.7c-2.9,0.1-5.3-2.1-5.5-5c-0.1-2.9,2.1-5.3,5-5.5c0.2,0,0.3,0,0.5,0
	c21.3,0,43.4-2.3,64.8-4.6c7-0.7,14.1-1.5,21.2-2.2c15.9-32.2,30-57.5,35.5-59.3c2-0.6,4.2-0.1,5.8,1.3c2.7,2.6,2.6,6.5-0.7,18
	c-0.1,0.4-0.3,0.7-0.4,1.1c-4.7,8.6-9.1,17.5-13.5,26.4c-1.8,3.6-3.6,7.2-5.4,10.8C2850,161.6,2875,161.9,2899.4,167.6z"/>
<path class="st0" d="M3011.4,320.7c-19.3,23.9-66.5,45.9-104.8,45.9c-6.8,0.1-13.6-0.7-20.3-2.4c-22.2-5.8-36.1-21.7-40.1-45.8v-0.2
	c-5-30.3,26.7-75.8,50-80.2c10.3-2,18,4.2,20.5,16.4c6.7,30.2-33.8,55.5-59.4,66.2c4.1,17.7,14.7,28.9,31.6,33.4
	c35.9,9.5,93.8-14.5,114.3-39.9c1.7-2.3,5-2.8,7.3-1.1c2.3,1.7,2.8,5,1.1,7.3C3011.6,320.5,3011.5,320.6,3011.4,320.7L3011.4,320.7z
	 M2856.1,309.7c24.2-10.7,55-32.2,50.4-53.1c-1.5-7.3-4.4-8.5-6.6-8.5c-0.6,0-1.2,0.1-1.7,0.2C2883,251.2,2857.1,284.4,2856.1,309.7
	L2856.1,309.7z"/>
<path class="st0" d="M3228.6,313.9c1.9,2.2,1.8,5.5-0.4,7.4c-25.8,23.1-62.6,49.8-95.1,49.8c-1.8,0-3.7-0.1-5.5-0.3
	c-14.4-1.4-26.5-8.5-35.9-21c-6.2-8.1-6-18.7-5.9-28c0.1-8.4,0.2-16.4-4.1-20.7c-5.2-5.6-13.3-6.8-21.9-8
	c-5.9-0.8-12.2-1.7-18.1-4.1c-7.5,9.4-17.6,20.1-30.5,32.2c-2.2,1.9-5.5,1.7-7.4-0.5c-1.8-2.1-1.7-5.2,0.2-7.1
	c13.2-12.3,22.3-22.2,28.6-30c-0.5-0.4-0.9-0.8-1.3-1.2c-9.7-10-7.9-18.9-5.9-23.3c3.3-7.4,11.5-12.9,19.4-12.9h0.4
	c5.2,0.1,9.3,2.8,11,7.3c2.4,6.3-0.3,15.3-8,26.9c4.3,1.2,8.6,2,13,2.5c10,1.4,20.4,2.9,28,11.1c7.3,7.3,7.2,17.9,7,28.1
	c-0.1,8.4-0.2,16.3,3.8,21.5c7.7,10.2,17,15.8,28.6,16.9c23.4,2.4,56.2-14.4,92.5-47C3223.3,311.6,3226.6,311.7,3228.6,313.9
	C3228.6,313.9,3228.6,313.9,3228.6,313.9L3228.6,313.9z M3046.5,257.2c-0.1-0.1-0.2-0.5-1.4-0.5h-0.1c-4.2,0.3-7.9,2.8-9.8,6.6
	c-1.6,3.5-0.3,7.5,3.8,11.7c0,0.1,0.1,0.1,0.2,0.1C3048,261.9,3046.5,257.3,3046.5,257.2z"/>
<path class="st0" d="M3348.9,320.7c-26.6,33.3-64.7,63.8-90.6,63.8c-3.8,0.1-7.6-0.7-11.1-2.3c-15.6-7.3-20.3-29.7-14-66.6
	c-1.2,1.7-2.4,3.4-3.6,5c-1.7,2.3-5,2.8-7.3,1.1s-2.8-5-1.1-7.3l0,0c10.9-14.6,20.9-31.2,32.3-53.4c25.4-58.5,69-151.9,79.8-155.3
	c2-0.6,4.2-0.1,5.8,1.3c2.7,2.6,2.6,6.5-0.7,18c-0.1,0.4-0.3,0.7-0.4,1.1c-4.7,8.6-9.1,17.5-13.5,26.4c-7.4,15-15.1,30.5-24.4,45.2
	c-13.3,21-25.3,44.4-34.3,62.5c-2.3,4.7-4.6,9.1-6.9,13.4c-7.5,17.4-12.7,30.6-13.6,35.5c-7.3,35.8-5,58.4,6.5,63.8
	c18.5,8.6,61-23.3,89.1-58.5c1.8-2.3,5.1-2.7,7.4-0.8C3350.3,315.2,3350.7,318.5,3348.9,320.7L3348.9,320.7z"/>
<path class="st0" d="M3492.8,321.2c-20.5,19.2-69.4,45-105.7,45c-8.1,0-15.5-1.3-21.9-4.2c-10.7-4.9-23.2-16.6-22.1-44.8
	c0.1-2.9,2.5-5.2,5.4-5.1s5.2,2.5,5.1,5.4c0,0.1,0,0.1,0,0.2c-0.7,18.2,4.5,29.6,16,34.9c29.4,13.4,92.9-17.2,116.1-38.9
	c2.1-2,5.4-2,7.4,0.1c2,2.1,2,5.4-0.1,7.4C3492.9,321.1,3492.9,321.2,3492.8,321.2L3492.8,321.2z M3346.8,279.8
	c-2.3-2.2-2.6-2.5,1.6-13.6c0-1,0.4-2,1.1-2.8l1.3-3.4c1-2.7,4.1-4,6.8-3c2.7,1,4,4.1,3,6.8c-0.9,2.4-1.7,4.5-2.4,6.2
	c-0.9,3.7-2.9,9.8-5.8,11c-0.6,0.3-1.3,0.4-2,0.4C3349.1,281.3,3347.8,280.8,3346.8,279.8L3346.8,279.8z"/>
<path class="st0" d="M3677,322c-54.1,30.5-71.7,7.8-82.2-5.8c-2.5-3.2-5.3-6.8-6.5-6.5c-3.1,1.3-13.2,12.6-21.4,21.7
	c-25.7,28.7-47.2,51.1-63.6,51.1c-2.3,0-4.6-0.5-6.7-1.4c-12.1-5.5-15.8-25.9-11.4-64.2c0.3-2.9,2.9-4.9,5.8-4.6
	c2.9,0.3,4.9,2.9,4.6,5.8l0,0c-5,43.8,2.1,52,5.3,53.4c11.4,5.1,41.8-28.8,58.2-47.1c13.2-14.8,20.4-22.5,25.4-24.4
	c8.4-3.3,13.8,3.6,18.6,9.8c9.5,12.3,22.6,29.2,68.7,3.1c2.5-1.5,5.7-0.6,7.2,1.9c1.5,2.5,0.6,5.7-1.9,7.2
	C3677.1,321.9,3677,322,3677,322L3677,322z"/>
</svg>
