<?xml version="1.0" encoding="utf-8"?>
<!-- Generator: Adobe Illustrator 24.0.1, SVG Export Plug-In . SVG Version: 6.00 Build 0)  -->
<svg version="1.1" id="Layer_1" xmlns="http://www.w3.org/2000/svg" xmlns:xlink="http://www.w3.org/1999/xlink" x="0px" y="0px"
	 viewBox="0 0 410 298.7" style="enable-background:new 0 0 410 298.7;" xml:space="preserve">
<style type="text/css">
	.st0{fill:none;}
	.st1{fill:#FFFFFF;}
</style>
<title>pyt-cover0</title>
<g>
	<path class="st0" d="M72.9,258.8c34,10.7,164.3,51.8,263.3-22.3c16.5-12.4,48.3-36.9,62.2-80.6c14.3-44.9,10-110.9-25.1-132.2
		c-35.4-21.5-66.8,24-171.5,40.5C119.4,77.1,98,55.5,55.2,81.4C32.7,95,12.4,116.8,0,140.5v81.9C15,240.2,41.7,249,72.9,258.8z"/>
	<path class="st1" d="M0,0v140.5C12.4,116.8,32.7,95,55.2,81.4c42.8-25.9,64.2-4.2,146.5-17.2c104.7-16.5,136.1-62,171.5-40.5
		c35.2,21.3,39.4,87.3,25.1,132.2c-13.9,43.8-45.7,68.2-62.2,80.6c-99,74.2-229.2,33.1-263.3,22.3C41.7,249,15,240.2,0,222.4v76.3
		h410V0H0z"/>
</g>
</svg>
