<svg id="Layer_1" data-name="Layer 1" xmlns="http://www.w3.org/2000/svg" viewBox="0 0 2282.62 632.78"><defs><style>.cls-1{fill:#fff;}</style></defs><title>Vinterliv-logo</title><path class="cls-1" d="M434.15,47.9C371.44,187.8,165,632.74,76.44,632.78a23.49,23.49,0,0,1-7.8-1.27c-107.06-36.28,33.09-511.46,34.56-516.24l1.82-5.11c6.67-18.74,12.66-34.35,18.06-47.33C103,80.51,81.73,96.22,61,111.52,46.4,122.1,29.22,133.73,11.14,145.23A7.24,7.24,0,1,1,3.36,133c17.83-11.35,34.75-22.8,48.91-33.09,26.9-19.83,54.62-40.26,78.84-64.48a103.47,103.47,0,0,1,8-6.94C152.11,4.67,160.78,0,168.11,0s9.52,4.28,10.16,6.13c2.67,7.74-4.66,13.84-23,28.1-1.63,1.26-3.26,2.54-4.83,3.77-7.67,14.67-18.06,38.45-31.77,77L117,119.86C80.6,238.66-1,592.61,73.34,617.78c37,12.77,162-161.74,347.59-575.82a7.25,7.25,0,0,1,13.22,5.94Z"/><path class="cls-1" d="M587.7,315.49c-28.36,26.54-95.94,62.18-146.08,62.18-11.16,0-21.45-1.77-30.26-5.78-14.75-6.74-32-23-30.52-62a7.34,7.34,0,0,1,7.52-7,7.26,7.26,0,0,1,7,7.54c-1,25.2,6.23,41,22.07,48.22,40.63,18.52,128.34-23.8,160.4-53.8a7.24,7.24,0,1,1,9.91,10.56ZM386,258.26c-3.17-3-3.58-3.45,2.24-18.84a6.6,6.6,0,0,1,1.51-3.93c.56-1.45,1.17-3,1.81-4.71A7.24,7.24,0,1,1,405.07,236c-1.3,3.36-2.37,6.18-3.27,8.55-1.28,5.07-3.94,13.49-7.94,15.18a7.37,7.37,0,0,1-2.83.57A7.29,7.29,0,0,1,386,258.26Z"/><path class="cls-1" d="M977.86,315.9c-47.66,37.68-83.93,55.68-112.66,55.68A62.67,62.67,0,0,1,853,370.41c-28.7-5.68-42.77-30.86-55.18-53.06-14.77-26.41-24.2-41.06-45.65-35-16.41,4.93-34.64,21.34-53.93,38.74-29,26.14-59.05,53.14-91.13,48.42-10.74-1.54-18.31-5.44-23.13-11.92-8.05-10.82-5.8-25.6-3.64-39.89.42-2.8.85-5.61,1.2-8.41a7.25,7.25,0,1,1,14.38,1.81c-.35,2.92-.8,5.84-1.25,8.75-1.8,11.89-3.51,23.12.94,29.09,2.41,3.22,6.84,5.27,13.6,6.22,25.53,3.8,52.85-21,79.33-44.84,20.55-18.52,40-36,59.58-41.89,33.7-9.61,48.9,17.76,62.35,41.83,11.42,20.41,23.23,41.51,45.37,45.9,25.62,5.13,62.67-11.8,113.07-51.65a7.24,7.24,0,1,1,9,11.36Z"/><path class="cls-1" d="M1204.24,103.14a7.27,7.27,0,0,1,5.45,8.65,7.2,7.2,0,0,1-8.71,5.42c-34.68-8-70.89-7.84-107-5.15-5.77,11-11.86,21.85-18.58,32.43-18.37,29.07-35,61.39-47.47,86.31-3.1,6.2-6.38,12.63-9.81,19.18-10.25,23.72-17.31,41.72-18.52,48.44-10.08,49.49-6.89,80.76,9,88.15,25.68,12,84.36-32.19,123.15-80.89a7.25,7.25,0,1,1,11.34,9c-36.71,46.09-89.36,88.16-125.27,88.16a36.06,36.06,0,0,1-15.37-3.17c-21.39-10-27.94-40.55-19.51-91q-2.05,2.89-4.18,5.77a7.24,7.24,0,1,1-11.64-8.62c17.25-23.29,31.75-49.83,43.89-73.72,15.13-34.84,34.94-78.61,53.76-117.55q-10.21,1-20.34,2.13c-29.92,3.19-60.86,6.48-91.08,6.48a7.25,7.25,0,1,1,0-14.49c29.47,0,60-3.25,89.55-6.4q14.6-1.55,29.34-3c22-44.45,41.49-79.54,49.11-82a8.81,8.81,0,0,1,8.08,1.83c3.78,3.66,3.56,9-1,24.84a6.44,6.44,0,0,1-.61,1.46c-6.46,11.89-12.53,24.16-18.65,36.54C1106.7,87,1104.24,92,1101.73,97c34.33-2.13,68.83-1.66,102.51,6.16Z"/><path class="cls-1" d="M1359.08,314.79c-26.64,33.07-91.94,63.43-144.91,63.43a110.23,110.23,0,0,1-28-3.33c-30.74-8.09-49.9-30-55.42-63.32,0-.1,0-.21,0-.29-6.85-41.89,36.92-104.7,69.18-110.77,14.19-2.7,24.81,5.79,28.36,22.69,9.26,41.7-46.74,76.73-82.1,91.53,5.61,24.46,20.3,39.95,43.72,46.13,49.57,13.1,129.59-20,157.94-55.18a7.25,7.25,0,0,1,11.29,9.11Zm-214.62-15.15c33.48-14.83,76-44.44,69.6-73.41-2.12-10.1-6.09-11.8-9.11-11.8a12.12,12.12,0,0,0-2.4.29C1181.61,218.68,1145.81,264.62,1144.46,299.64Z"/><path class="cls-1" d="M1659.27,305.38a7.27,7.27,0,0,1-.55,10.25c-35.66,32-86.54,68.88-131.38,68.88a74.08,74.08,0,0,1-7.6-.36c-19.94-2-36.62-11.73-49.59-29-8.55-11.14-8.35-25.78-8.16-38.72.16-11.64.33-22.64-5.65-28.63-7.18-7.75-18.4-9.34-30.25-11-8.09-1.15-16.83-2.38-25-5.7q-15.48,19.43-42.19,44.44a7.25,7.25,0,0,1-9.91-10.58c18.23-17.07,30.84-30.73,39.55-41.52-.62-.54-1.23-1.12-1.82-1.71-13.35-13.83-10.88-26.08-8.21-32.15,4.51-10.26,16-17.83,26.84-17.83h.58c7.16.18,12.83,3.95,15.16,10.08,3.35,8.78-.36,21.19-11,37.13,5.52,1.72,11.66,2.58,18,3.48,13.85,1.95,28.18,4,38.66,15.33,10.12,10.12,9.91,24.72,9.7,38.85-.18,11.61-.34,22.57,5.21,29.77,10.64,14.16,23.53,21.79,39.48,23.35,32.28,3.31,77.67-19.88,127.88-64.88a7.21,7.21,0,0,1,10.23.55ZM1407.6,227c-.08-.21-.28-.71-2-.76h-.2c-4.57,0-11.19,3.71-13.58,9.16-2.16,4.9-.39,10.34,5.26,16.16a1.37,1.37,0,0,0,.22.2C1409.7,233.48,1407.62,227.06,1407.6,227Z"/><path class="cls-1" d="M1825.52,314.74c-36.7,46.09-89.36,88.16-125.27,88.16a36,36,0,0,1-15.36-3.17c-21.55-10.06-28-41-19.32-92.08-1.66,2.35-3.33,4.64-5,6.9a7.25,7.25,0,0,1-11.63-8.65c15-20.16,28.92-43.18,44.6-73.86,35.12-80.93,95.39-209.87,110.27-214.64a8.75,8.75,0,0,1,8,1.83c3.79,3.66,3.57,9-1,24.84a7.5,7.5,0,0,1-.61,1.46c-6.48,11.87-12.54,24.15-18.65,36.51-10.26,20.75-20.87,42.22-33.77,62.48-18.34,29-35,61.38-47.47,86.31q-4.86,9.71-9.52,18.52c-10.4,24-17.6,42.3-18.83,49.1-10.07,49.49-6.87,80.76,9,88.15,25.58,11.94,84.36-32.19,123.15-80.89a7.26,7.26,0,0,1,11.36,9Z"/><path class="cls-1" d="M2024.4,315.49c-28.36,26.54-95.94,62.18-146.07,62.18-11.16,0-21.45-1.77-30.26-5.78-14.76-6.74-32-23-30.53-62a7.35,7.35,0,0,1,7.53-7,7.25,7.25,0,0,1,7,7.54c-1,25.2,6.24,41,22.08,48.22,40.62,18.52,128.33-23.8,160.39-53.8a7.24,7.24,0,1,1,9.91,10.56Zm-201.71-57.23c-3.16-3-3.58-3.45,2.25-18.84a6.53,6.53,0,0,1,1.5-3.93c.57-1.45,1.18-3,1.82-4.71a7.24,7.24,0,1,1,13.52,5.21c-1.31,3.36-2.38,6.18-3.28,8.55-1.27,5.07-3.94,13.49-7.94,15.18a7.28,7.28,0,0,1-7.87-1.46Z"/><path class="cls-1" d="M2278.93,316.52c-74.73,42.21-99,10.71-113.6-8.08-3.48-4.48-7.35-9.37-9-8.93-4.28,1.74-18.29,17.38-29.55,29.94-35.55,39.7-65.23,70.58-87.9,70.58a22.42,22.42,0,0,1-9.28-1.94c-16.8-7.53-21.83-35.74-15.81-88.71a7.25,7.25,0,1,1,14.4,1.65c-6.88,60.58,2.85,71.83,7.35,73.84C2051.24,392,2093.34,345,2116,319.8c18.28-20.41,28.15-31.16,35.11-33.79,11.68-4.62,19.13,5.05,25.72,13.59,13.19,17,31.28,40.36,95,4.31a7.25,7.25,0,1,1,7.14,12.61Z"/></svg>
